<?xml version="1.0" standalone="no"?>
<!DOCTYPE svg PUBLIC "-//W3C//DTD SVG 20010904//EN" "http://www.w3.org/TR/2001/REC-SVG-20010904/DTD/svg10.dtd">
<!-- Created using Krita: https://krita.org -->
<svg xmlns="http://www.w3.org/2000/svg" 
    xmlns:xlink="http://www.w3.org/1999/xlink"
    xmlns:krita="http://krita.org/namespaces/svg/krita"
    xmlns:sodipodi="http://sodipodi.sourceforge.net/DTD/sodipodi-0.dtd"
    width="245.76pt"
    height="245.76pt"
    viewBox="0 0 245.76 245.76">
<defs/>
<path id="shape021" transform="matrix(1.30030216306303 0 0 1.30030216306303 61.0661225264026 109.085871755127)" fill="#1e1e34" fill-rule="evenodd" stroke-opacity="0" stroke="#000000" stroke-width="0" stroke-linecap="square" stroke-linejoin="bevel" d="M0.513549 45.514C-0.859244 17.8413 0.567079 1.16476 4.23129 0.100056C7.8955 -0.964649 19.2691 6.43316 38.9135 23.9552C28.9467 25.8708 21.9923 28.1784 16.3679 30.8966C10.7435 33.6149 4.89793 40.586 0.513549 45.514Z" sodipodi:nodetypes="czczc"/><path id="shape0" transform="matrix(1.30030216306303 0 0 1.30030216306303 60.5435224375685 139.675904221511)" sodipodi:type="arc" sodipodi:rx="47.9399937439078" sodipodi:ry="27.6599955730758" sodipodi:cx="47.9399937439078" sodipodi:cy="27.6599955730758" sodipodi:start="6.28318530717959" sodipodi:end="3.5527136788005e-15" sodipodi:open="true" d="M95.88 27.66C95.88 12.3838 74.4165 5.89489e-14 47.94 0C21.4635 -5.89489e-14 1.03791e-13 12.3838 0 27.66C-1.03791e-13 42.9362 21.4635 55.32 47.94 55.32C74.4165 55.32 95.88 42.9362 95.88 27.66Z" fill="#1e1e34" fill-rule="evenodd" stroke-opacity="0" stroke="#000000" stroke-width="0" stroke-linecap="square" stroke-linejoin="bevel"/><path id="shape011" transform="matrix(-1.30030216306303 0 0 1.30030216306303 184.541634556174 108.819299597947)" fill="#1e1e34" fill-rule="evenodd" stroke-opacity="0" stroke="#000000" stroke-width="0" stroke-linecap="square" stroke-linejoin="bevel" d="M0.527525 45.7698C-0.845268 18.0971 0.494536 1.16101 4.15875 0.0963062C7.82296 -0.968399 19.1966 6.77549 38.841 24.2976C28.8742 26.2132 21.9867 28.6741 16.3623 31.3924C10.7379 34.1107 4.91191 40.8418 0.527525 45.7698Z" sodipodi:nodetypes="czczc"/><circle id="shape1" transform="matrix(1.30030216306303 0 0 1.30030216306303 79.8920078542599 152.544621428796)" r="11.76" cx="11.76" cy="11.76" fill="#aa33ff" fill-rule="evenodd" stroke-opacity="0" stroke="#000000" stroke-width="0" stroke-linecap="square" stroke-linejoin="bevel"/><ellipse id="shape0111" transform="matrix(-2.88725080080494e-16 1.30030216306303 1.30030216306303 2.88725080080494e-16 87.3661092799913 153.438239159194)" rx="8.70521403219518" ry="5.82000400141108" cx="8.70521403219518" cy="5.82000400141108" fill="#000000" fill-rule="evenodd" stroke-opacity="0" stroke="#000000" stroke-width="0" stroke-linecap="square" stroke-linejoin="bevel"/><circle id="shape03" transform="matrix(1.30030216306303 0 0 1.30030216306303 133.896608523421 153.262388372775)" r="11.76" cx="11.76" cy="11.76" fill="#aa33ff" fill-rule="evenodd" stroke-opacity="0" stroke="#000000" stroke-width="0" stroke-linecap="square" stroke-linejoin="bevel"/><ellipse id="shape012" transform="matrix(-2.88725080080494e-16 1.30030216306303 1.30030216306303 2.88725080080494e-16 141.370709949153 154.156006103173)" rx="8.70521403219518" ry="5.82000400141108" cx="8.70521403219518" cy="5.82000400141108" fill="#000000" fill-rule="evenodd" stroke-opacity="0" stroke="#000000" stroke-width="0" stroke-linecap="square" stroke-linejoin="bevel"/><path id="shape05" transform="matrix(0.625 0 0 0.625 76.6897800284463 199.242779643813)" fill="#1e1e34" fill-rule="evenodd" stroke-opacity="0" stroke="#000000" stroke-width="0" stroke-linecap="square" stroke-linejoin="bevel" d="M2.47451 156.311C-3.86268 142.117 1.97223 90.0136 19.9792 0C44.0125 5.57062 105.219 5.81064 127.33 0.72C145.694 90.2536 151.707 142.117 145.37 156.311C141.86 164.174 6.23832 164.742 2.47451 156.311Z" sodipodi:nodetypes="ccccc"/><text id="shape2" krita:useRichText="true" text-rendering="auto" krita:textVersion="3" transform="matrix(0.625 0 0 0.625 80.45578125 109.017499942735)" fill="#ffffff" stroke-opacity="0" stroke="#000000" stroke-width="0" stroke-linecap="square" stroke-linejoin="bevel" letter-spacing="0" word-spacing="0" style="text-align: start;text-align-last: auto;font-family: FreeSans;font-size: 80;font-weight: 600;"><tspan x="0">Aあ</tspan></text>
</svg>
