<?xml version="1.0" standalone="no"?>
<!DOCTYPE svg PUBLIC "-//W3C//DTD SVG 20010904//EN" "http://www.w3.org/TR/2001/REC-SVG-20010904/DTD/svg10.dtd">
<!-- Created using Krita: https://krita.org -->
<svg xmlns="http://www.w3.org/2000/svg" 
    xmlns:xlink="http://www.w3.org/1999/xlink"
    xmlns:krita="http://krita.org/namespaces/svg/krita"
    xmlns:sodipodi="http://sodipodi.sourceforge.net/DTD/sodipodi-0.dtd"
    width="240pt"
    height="240pt"
    viewBox="0 0 240 240">
<defs/>
<ellipse id="shape0" transform="translate(72.0600062560922, 76.6200000067053)" rx="47.9399937439078" ry="27.6599955730758" cx="47.9399937439078" cy="27.6599955730758" fill="#1e1e34" fill-rule="evenodd" stroke-opacity="0" stroke="#000000" stroke-width="0" stroke-linecap="square" stroke-linejoin="bevel"/><path id="shape04" transform="matrix(-1 0 0 1 167.493550779991 50.4764532366537)" fill="#1e1e34" fill-rule="evenodd" stroke-opacity="0" stroke="#000000" stroke-width="0" stroke-linecap="square" stroke-linejoin="bevel" d="M0.513549 40.9635C-0.859244 13.2908 0.567079 1.17094 4.23129 0.106233C7.8955 -0.958472 19.2691 5.92023 38.9135 23.4423C28.9467 25.3579 21.6267 27.2998 16.0023 30.018C10.3779 32.7363 4.89793 36.0355 0.513549 40.9635Z" sodipodi:nodetypes="czczc"/><path id="shape2" transform="translate(69.0321323981775, 126.539995382695)" fill="#1e1e34" fill-rule="evenodd" stroke-opacity="0" stroke="#000000" stroke-width="0" stroke-linecap="square" stroke-linejoin="bevel" d="M2.96788 79.9396C-3.4183 68.8467 0.501683 42.2001 14.7279 1.42109e-14C26.0779 5.6533 38.1579 8.47995 50.9679 8.47996C63.7779 8.47997 75.7379 5.65331 86.8479 0C101.314 42.2001 105.354 68.8467 98.9679 79.9396C96.6095 84.0361 94.5908 86.8273 92.9116 88.3133C87.9597 80.7965 80.8015 77.9299 71.437 79.7136C61.2992 81.6445 56.5558 87.009 57.2069 95.807C54.1347 95.8153 52.0551 95.8195 50.9679 95.8195C49.678 95.8195 47.9053 95.7378 45.6498 95.5743C47.2201 86.7583 42.853 81.3274 32.5484 79.2818C22.2438 77.2361 14.3647 80.0411 8.91123 87.6966C7.4776 86.9175 5.49648 84.3318 2.96788 79.9396Z" sodipodi:nodetypes="cczczcsccczcc"/><path id="shape05" transform="translate(71.6832483257782, 50.8582521647195)" fill="#1e1e34" fill-rule="evenodd" stroke-opacity="0" stroke="#000000" stroke-width="0" stroke-linecap="square" stroke-linejoin="bevel" d="M0.513549 40.9635C-0.859244 13.2908 0.567079 1.17094 4.23129 0.106233C7.8955 -0.958472 19.2691 5.92023 38.9135 23.4423C28.9467 25.3579 21.3867 27.0598 15.7623 29.778C10.1379 32.4963 4.89793 36.0355 0.513549 40.9635Z" sodipodi:nodetypes="czczc"/><path id="shape4" transform="translate(56.6036952943767, 182.864993298224)" fill="#462da1" fill-rule="evenodd" stroke-opacity="0" stroke="#000000" stroke-width="0" stroke-linecap="square" stroke-linejoin="bevel" d="M114.051 0C141.674 70.827 -9.47727 34.3673 0.471302 15.975C11.7461 -4.86913 67.1727 52.043 114.051 0Z" sodipodi:nodetypes="csc"/><circle id="shape6" transform="translate(86.9399979736431, 88.9200004693747)" r="11.76" cx="11.76" cy="11.76" fill="#462da1" fill-rule="evenodd" stroke-opacity="0" stroke="#000000" stroke-width="0" stroke-linecap="square" stroke-linejoin="bevel"/><ellipse id="shape013" transform="matrix(-2.22044604925031e-16 1 1 2.22044604925031e-16 92.6879707433917 92.5296366127769)" rx="8.70521403219518" ry="5.82000400141108" cx="8.70521403219518" cy="5.82000400141108" fill="#000000" fill-rule="evenodd" stroke-opacity="0" stroke="#000000" stroke-width="0" stroke-linecap="square" stroke-linejoin="bevel"/><circle id="shape015" transform="translate(128.621996425375, 89.472000584708)" r="11.76" cx="11.76" cy="11.76" fill="#462da1" fill-rule="evenodd" stroke-opacity="0" stroke="#000000" stroke-width="0" stroke-linecap="square" stroke-linejoin="bevel"/><ellipse id="shape016" transform="matrix(-2.22044604925031e-16 1 1 2.22044604925031e-16 134.369969195123 93.0816367281102)" rx="8.70521403219518" ry="5.82000400141108" cx="8.70521403219518" cy="5.82000400141108" fill="#000000" fill-rule="evenodd" stroke-opacity="0" stroke="#000000" stroke-width="0" stroke-linecap="square" stroke-linejoin="bevel"/>
</svg>
