<?xml version="1.0" standalone="no"?>
<!DOCTYPE svg PUBLIC "-//W3C//DTD SVG 20010904//EN" "http://www.w3.org/TR/2001/REC-SVG-20010904/DTD/svg10.dtd">
<!-- Created using Krita: https://krita.org -->
<svg xmlns="http://www.w3.org/2000/svg" 
    xmlns:xlink="http://www.w3.org/1999/xlink"
    xmlns:krita="http://krita.org/namespaces/svg/krita"
    xmlns:sodipodi="http://sodipodi.sourceforge.net/DTD/sodipodi-0.dtd"
    width="240pt"
    height="240pt"
    viewBox="0 0 240 240">
<defs/>
<path id="shape1" transform="matrix(1.12995485259182 0 0 1.12995485259182 80.2198067317142 144.917531988951)" fill="#1e1e34" fill-rule="evenodd" stroke-opacity="0" stroke="#000000" stroke-width="0" stroke-linecap="square" stroke-linejoin="bevel" d="M71.4912 0C70.1168 5.55114 61.0038 10.0877 46.8073 17.1142C32.6108 24.1408 17.8934 26.5869 0 20.9481C22.6672 35.6465 37.6717 46.626 45.0135 53.8868C91.6136 107.663 96.3444 113.785 141.404 137.247C141.404 77.8572 141.404 40.3847 141.404 24.8292C125.195 13.6091 101.891 5.33273 71.4912 0Z" sodipodi:nodetypes="czccccc"/><ellipse id="shape0" transform="matrix(1.39062938835835 -0.136538435988583 0.136538435988583 1.39062938835835 49.8019615667711 103.275751441345)" rx="39.5242222080924" ry="27.6599955730758" cx="39.5242222080924" cy="27.6599955730758" fill="#1e1e34" fill-rule="evenodd" stroke-opacity="0" stroke="#000000" stroke-width="0" stroke-linecap="square" stroke-linejoin="bevel"/><path id="shape01" transform="matrix(-1.39731629929237 0 0 1.39731629929237 158.925516649064 69.7305800449948)" fill="#1e1e34" fill-rule="evenodd" stroke-opacity="0" stroke="#000000" stroke-width="0" stroke-linecap="square" stroke-linejoin="bevel" d="M0.443943 47.7295C-0.742782 15.4809 0.490218 1.35699 3.65778 0.116226C6.82535 -1.12454 18.0035 7.53569 27.5138 27.6975C18.8979 29.9299 18.6954 31.8064 13.8334 34.9741C8.97128 38.1419 4.23407 41.9866 0.443943 47.7295Z" sodipodi:nodetypes="czczc"/><path id="shape02" transform="matrix(1.39731629929237 0 0 1.39731629929237 56.6909719705917 72.0266803544589)" fill="#1e1e34" fill-rule="evenodd" stroke-opacity="0" stroke="#000000" stroke-width="0" stroke-linecap="square" stroke-linejoin="bevel" d="M0.389736 40.9635C-0.652087 13.2908 0.430361 1.17094 3.21116 0.106233C5.99196 -0.958472 14.6235 5.92023 29.5318 23.4423C21.9679 25.3579 16.2305 27.0598 11.9621 29.778C7.69373 32.4963 3.71708 36.0355 0.389736 40.9635Z" sodipodi:nodetypes="czczc"/><circle id="shape3" transform="matrix(1.32739532540476 0 0 1.32739532540476 64.426374347021 110.819661374029)" r="11.76" cx="11.76" cy="11.76" fill="#aa33ff" fill-rule="evenodd" stroke-opacity="0" stroke="#000000" stroke-width="0" stroke-linecap="square" stroke-linejoin="bevel"/><ellipse id="shape011" transform="matrix(-3.11227030016215e-16 1.04818274791731 1.40164193640866 2.32743324150532e-16 71.014433971538 112.433774420548)" rx="8.70521403219518" ry="5.82000400141108" cx="8.70521403219518" cy="5.82000400141108" fill="#000000" fill-rule="evenodd" stroke-opacity="0" stroke="#000000" stroke-width="0" stroke-linecap="square" stroke-linejoin="bevel"/><circle id="shape04" transform="matrix(1.32739532540476 0 0 1.32739532540476 108.203344397728 108.132526085641)" r="11.76" cx="11.76" cy="11.76" fill="#aa33ff" fill-rule="evenodd" stroke-opacity="0" stroke="#000000" stroke-width="0" stroke-linecap="square" stroke-linejoin="bevel"/><ellipse id="shape012" transform="matrix(-3.11227030016215e-16 1.04818274791731 1.40164193640866 2.32743324150532e-16 113.042438312639 110.261323248989)" rx="8.70521403219518" ry="5.82000400141108" cx="8.70521403219518" cy="5.82000400141108" fill="#000000" fill-rule="evenodd" stroke-opacity="0" stroke="#000000" stroke-width="0" stroke-linecap="square" stroke-linejoin="bevel"/>
</svg>
