<?xml version="1.0" standalone="no"?>
<!DOCTYPE svg PUBLIC "-//W3C//DTD SVG 20010904//EN" "http://www.w3.org/TR/2001/REC-SVG-20010904/DTD/svg10.dtd">
<!-- Created using Krita: https://krita.org -->
<svg xmlns="http://www.w3.org/2000/svg" 
    xmlns:xlink="http://www.w3.org/1999/xlink"
    xmlns:krita="http://krita.org/namespaces/svg/krita"
    xmlns:sodipodi="http://sodipodi.sourceforge.net/DTD/sodipodi-0.dtd"
    width="240pt"
    height="240pt"
    viewBox="0 0 240 240">
<defs/>
<ellipse id="shape0" transform="matrix(1.91759275812347 0 0 1.91759275812347 138.348426880062 83.9417354139577)" rx="9.43499731957435" ry="5.42250304334758" cx="9.43499731957435" cy="5.42250304334758" fill="#1e1e34" fill-rule="evenodd" stroke-opacity="0" stroke="#000000" stroke-width="0" stroke-linecap="square" stroke-linejoin="bevel"/><path id="shape1" transform="matrix(1.9002471054838 0.257338151287492 -0.257338151287492 1.9002471054838 68.6970086737287 73.1224362704489)" fill="#1e1e34" fill-rule="evenodd" stroke-opacity="0" stroke="#000000" stroke-width="0" stroke-linecap="square" stroke-linejoin="bevel" d="M3.97312 18.8148C15.3862 20.9685 38.0566 16.4146 41.2506 12.3595C36.6089 10.1513 36.9387 8.99586 36.676 5.49C31.6702 5.41165 -13.4289 -13.2999 3.97312 18.8148Z" sodipodi:nodetypes="cccc"/><path id="shape2" transform="matrix(-1.91759275812347 0 0 1.91759275812347 65.3859334465781 85.6388020810528)" fill="#1e1e34" fill-rule="evenodd" stroke-opacity="0" stroke="#000000" stroke-width="0" stroke-linecap="square" stroke-linejoin="bevel" d="M0.250765 0C0.484845 0.714222 0.573481 1.73883 0.516675 3.07383C0.459869 4.40883 0.287644 5.39422 0 6.03C9.54349 11.498 18.1639 11.9655 25.8611 7.4325C28.9568 5.78247 29.5056 2.88183 24.8721 3.0825C16.8739 6.1185 8.66682 5.091 0.250765 0Z" sodipodi:nodetypes="czcccc"/><path id="shape02" transform="matrix(3.98247866737929 -0.236925384972287 0.236925384972287 3.98247866737929 127.823453931544 79.4413146048581)" fill="#1e1e34" fill-rule="evenodd" stroke-opacity="0" stroke="#000000" stroke-width="0" stroke-linecap="square" stroke-linejoin="bevel" d="M3.057 3.02075C-0.381115 0.57521 -0.919173 -0.385435 1.44283 0.138818C4.83865 0.767911 6.41397 1.28581 6.16878 1.69253C5.17474 1.86227 4.55513 2.00639 4.30996 2.12487C4.0648 2.24336 3.64714 2.54199 3.057 3.02075Z" sodipodi:nodetypes="ccczc"/><path id="shape01" transform="matrix(1.91759275812347 0 0 1.91759275812347 123.832877620178 99.1893569827794)" fill="#1e1e34" fill-rule="evenodd" stroke-opacity="0" stroke="#000000" stroke-width="0" stroke-linecap="square" stroke-linejoin="bevel" d="M4.12076 0C4.71484 0.714222 2.37348 3.40383 2.31667 4.73883C2.25987 6.07383 0.287644 6.44422 0 7.08C10.1735 8.093 14.6539 8.3205 25.7261 7.7475C30.0818 8.03247 31.7556 4.68183 27.1221 3.9375C14.3539 3.3285 11.0518 5.136 4.12076 0Z" sodipodi:nodetypes="czcccc"/><path id="shape03" transform="matrix(1.91759275812347 0 0 1.91759275812347 148.453591857206 28.1114079930595)" fill="#1e1e34" fill-rule="evenodd" stroke-opacity="0" stroke="#000000" stroke-width="0" stroke-linecap="square" stroke-linejoin="bevel" d="M0.594081 3.36568C-0.0385349 5.84884 -0.486295 9.40165 0.981695 10.9402C1.36582 12.1867 1.46424 16.5836 16.6441 11.5688C16.7939 10.379 18.7453 9.4115 18.0252 8.08796C13.373 8.77169 14.7717 -6.58748 0.594081 3.36568Z" sodipodi:nodetypes="ccccc"/><path id="shape11" transform="matrix(1.9002471054838 0.257338151287492 -0.257338151287492 1.9002471054838 68.9361153146719 21.2160485442028)" fill="#1e1e34" fill-rule="evenodd" stroke-opacity="0" stroke="#000000" stroke-width="0" stroke-linecap="square" stroke-linejoin="bevel" d="M5.18886 19.341C16.602 21.4947 43.4279 16.1056 46.6218 12.0505C41.9801 9.84228 41.5531 6.00419 41.2904 2.49834C34.6174 -0.50271 -16.1112 -5.34337 5.18886 19.341Z" sodipodi:nodetypes="cccc"/><path id="shape21" transform="matrix(-1.91759275812347 0 0 1.91759275812347 64.6932880195698 35.5630403977195)" fill="#1e1e34" fill-rule="evenodd" stroke-opacity="0" stroke="#000000" stroke-width="0" stroke-linecap="square" stroke-linejoin="bevel" d="M0.250765 0C0.484845 0.714222 0.573481 1.73883 0.516675 3.07383C0.459869 4.40883 0.287644 5.39422 0 6.03C9.54349 11.498 18.1639 11.9655 25.8611 7.4325C28.9568 5.78247 29.5056 2.88183 24.8721 3.0825C16.8739 6.1185 8.66682 5.091 0.250765 0Z" sodipodi:nodetypes="czcccc"/><path id="shape021" transform="matrix(3.98247866737929 -0.236925384972287 0.236925384972287 3.98247866737929 137.051502450314 23.3695533566119)" fill="#1e1e34" fill-rule="evenodd" stroke-opacity="0" stroke="#000000" stroke-width="0" stroke-linecap="square" stroke-linejoin="bevel" d="M3.42458 3.04592C-0.304546 0.583062 -0.988105 -0.386239 1.3739 0.138014C3.73591 0.662267 5.69409 1.20535 7.24844 1.76728C5.70108 2.09189 4.80482 2.31344 4.55965 2.43193C4.1919 2.60966 3.81354 2.81433 3.42458 3.04592Z" sodipodi:nodetypes="czczc"/><path id="shape011" transform="matrix(1.91759275812347 0 0 1.91759275812347 134.358149075991 48.0780952794932)" fill="#1e1e34" fill-rule="evenodd" stroke-opacity="0" stroke="#000000" stroke-width="0" stroke-linecap="square" stroke-linejoin="bevel" d="M4.12076 0C4.71484 0.714222 2.37348 3.40383 2.31667 4.73883C2.25987 6.07383 0.287644 6.44422 0 7.08C10.1735 8.093 14.6539 8.3205 25.7261 7.7475C30.0818 8.03247 31.7556 4.68183 27.1221 3.9375C14.4889 2.8335 11.0518 5.136 4.12076 0Z" sodipodi:nodetypes="czcccc"/><circle id="shape031" transform="matrix(0.412387447482759 0 0 0.412387447482759 151.718965176857 88.4613749563891)" r="10.4754037997001" cx="10.4754037997001" cy="10.4754037997001" fill="#aa33ff" fill-rule="evenodd" stroke-opacity="0" stroke="#000000" stroke-width="0" stroke-linecap="square" stroke-linejoin="bevel"/><ellipse id="shape012" transform="matrix(-9.1568407852351e-17 0.412387447482759 0.412387447482759 9.1568407852351e-17 155.085118412128 89.7455147547274)" rx="7.66177378583781" ry="4.86754633765314" cx="7.66177378583781" cy="4.86754633765314" fill="#000000" fill-rule="evenodd" stroke-opacity="0" stroke="#000000" stroke-width="0" stroke-linecap="square" stroke-linejoin="bevel"/><path id="shape022" transform="matrix(-3.98247866737929 -0.236925384972288 -0.236925384972288 3.98247866737929 165.629612021224 79.3363417177297)" fill="#1e1e34" fill-rule="evenodd" stroke-opacity="0" stroke="#000000" stroke-width="0" stroke-linecap="square" stroke-linejoin="bevel" d="M0 1.28736C1.10423 -0.195788 4.83131 -0.118638 4.81768 0.16397C4.80405 0.446578 3.39467 0.598321 2.9121 1.00897C2.90061 1.01206 1.62342 0.959368 1.2843 1.0181C0.945183 1.07683 0.0388626 1.29342 0 1.28736Z" sodipodi:nodetypes="czczc"/><ellipse id="shape3" transform="matrix(1.91759275812347 0 0 1.91759275812347 209.193890997415 91.3053030298676)" rx="5.40000000000001" ry="5.39999999999999" cx="5.40000000000001" cy="5.39999999999999" fill="#aa33ff" fill-rule="evenodd" stroke-opacity="0" stroke="#000000" stroke-width="0" stroke-linecap="square" stroke-linejoin="bevel"/><path id="shape04" transform="matrix(-1.91759275812347 0 0 1.91759275812347 212.957616962179 106.622652503708)" fill="#aa33ff" fill-rule="evenodd" stroke-opacity="0" stroke="#000000" stroke-width="0" stroke-linecap="square" stroke-linejoin="bevel" d="M0.847015 1.46363C0.586095 1.94535 0.475144 1.92285 0 2.33363C3.18349 2.34163 2.6839 1.80413 9.3311 0.781132C14.4968 1.4111 14.9556 0.220462 9.9621 0.00113213C4.7839 -0.0528677 3.74307 1.84463 0.847015 1.46363Z" sodipodi:nodetypes="ccccc"/><circle id="shape032" transform="matrix(0.412387447482758 0 0 0.412387447482758 162.28065446378 87.8626747493364)" r="10.4754037997001" cx="10.4754037997001" cy="10.4754037997001" fill="#aa33ff" fill-rule="evenodd" stroke-opacity="0" stroke="#000000" stroke-width="0" stroke-linecap="square" stroke-linejoin="bevel"/><ellipse id="shape0121" transform="matrix(-9.1568407852351e-17 0.412387447482758 0.412387447482758 9.1568407852351e-17 165.64680769905 89.1468145476732)" rx="7.66177378583781" ry="4.86754633765314" cx="7.66177378583781" cy="4.86754633765314" fill="#000000" fill-rule="evenodd" stroke-opacity="0" stroke="#000000" stroke-width="0" stroke-linecap="square" stroke-linejoin="bevel"/><ellipse id="shape05" transform="matrix(1.91759275812347 0 0 1.91759275812347 138.015035865699 136.28747583241)" rx="8.56942500960187" ry="5.42250304334758" cx="8.56942500960187" cy="5.42250304334758" fill="#1e1e34" fill-rule="evenodd" stroke-opacity="0" stroke="#000000" stroke-width="0" stroke-linecap="square" stroke-linejoin="bevel"/><path id="shape12" transform="matrix(1.9002471054838 0.257338151287492 -0.257338151287492 1.9002471054838 68.3636105845647 125.468183750644)" fill="#1e1e34" fill-rule="evenodd" stroke-opacity="0" stroke="#000000" stroke-width="0" stroke-linecap="square" stroke-linejoin="bevel" d="M3.97312 18.8148C15.3862 20.9685 38.0566 16.4146 41.2506 12.3595C36.6089 10.1513 36.9387 8.99586 36.676 5.49C31.6702 5.41165 -13.4289 -13.2999 3.97312 18.8148Z" sodipodi:nodetypes="cccc"/><path id="shape22" transform="matrix(-1.91759275812347 0 0 1.91759275812347 65.0525424322147 137.984542499506)" fill="#1e1e34" fill-rule="evenodd" stroke-opacity="0" stroke="#000000" stroke-width="0" stroke-linecap="square" stroke-linejoin="bevel" d="M0.250765 0C0.484845 0.714222 0.573481 1.73883 0.516675 3.07383C0.459869 4.40883 0.287644 5.39422 0 6.03C9.54349 11.498 18.1639 11.9655 25.8611 7.4325C28.9568 5.78247 29.5056 2.88183 24.8721 3.0825C16.8739 6.1185 8.66682 5.091 0.250765 0Z" sodipodi:nodetypes="czcccc"/><path id="shape023" transform="matrix(3.98247866737929 -0.236925384972287 0.236925384972287 3.98247866737929 127.490063683964 131.787054008897)" fill="#1e1e34" fill-rule="evenodd" stroke-opacity="0" stroke="#000000" stroke-width="0" stroke-linecap="square" stroke-linejoin="bevel" d="M3.057 3.02075C-0.381115 0.57521 -0.919173 -0.385435 1.44283 0.138818C4.83865 0.767911 6.41397 1.28581 6.16878 1.69253C5.17474 1.86227 4.55513 2.00639 4.30996 2.12487C4.0648 2.24336 3.64714 2.54199 3.057 3.02075Z" sodipodi:nodetypes="ccczc"/><path id="shape013" transform="matrix(1.91759275812347 0 0 1.91759275812347 123.499486605815 151.535097401232)" fill="#1e1e34" fill-rule="evenodd" stroke-opacity="0" stroke="#000000" stroke-width="0" stroke-linecap="square" stroke-linejoin="bevel" d="M4.12076 0C4.71484 0.714222 2.37348 3.40383 2.31667 4.73883C2.25987 6.07383 0.287644 6.44422 0 7.08C10.1735 8.093 14.6539 8.3205 25.7261 7.7475C30.0818 8.03247 31.7556 4.68183 27.1221 3.9375C14.3539 3.3285 11.0518 5.136 4.12076 0Z" sodipodi:nodetypes="czcccc"/><circle id="shape033" transform="matrix(0.412387447482758 0 0 0.412387447482758 149.947379690337 140.807115374842)" r="10.4754037997001" cx="10.4754037997001" cy="10.4754037997001" fill="#aa33ff" fill-rule="evenodd" stroke-opacity="0" stroke="#000000" stroke-width="0" stroke-linecap="square" stroke-linejoin="bevel"/><ellipse id="shape0122" transform="matrix(-9.1568407852351e-17 0.412387447482758 0.412387447482758 9.1568407852351e-17 153.313532925607 142.091255173179)" rx="7.66177378583781" ry="4.86754633765314" cx="7.66177378583781" cy="4.86754633765314" fill="#000000" fill-rule="evenodd" stroke-opacity="0" stroke="#000000" stroke-width="0" stroke-linecap="square" stroke-linejoin="bevel"/><path id="shape0211" transform="matrix(-3.98247866737929 -0.236925384972287 -0.236925384972287 3.98247866737929 165.296221063025 131.682081192136)" fill="#1e1e34" fill-rule="evenodd" stroke-opacity="0" stroke="#000000" stroke-width="0" stroke-linecap="square" stroke-linejoin="bevel" d="M0 1.28736C1.10423 -0.195788 4.83131 -0.118638 4.81768 0.16397C4.80405 0.446578 3.39467 0.598321 2.9121 1.00897C2.90061 1.01206 1.62342 0.959368 1.2843 1.0181C0.945183 1.07683 0.0388626 1.29342 0 1.28736Z" sodipodi:nodetypes="czczc"/><ellipse id="shape31" transform="matrix(1.91759275812347 0 0 1.91759275812347 208.860499983052 143.651043448321)" rx="5.40000000000001" ry="5.39999999999999" cx="5.40000000000001" cy="5.39999999999999" fill="#aa33ff" fill-rule="evenodd" stroke-opacity="0" stroke="#000000" stroke-width="0" stroke-linecap="square" stroke-linejoin="bevel"/><path id="shape041" transform="matrix(-1.91759275812347 0 0 1.91759275812347 212.624225947816 158.968392915879)" fill="#aa33ff" fill-rule="evenodd" stroke-opacity="0" stroke="#000000" stroke-width="0" stroke-linecap="square" stroke-linejoin="bevel" d="M0.847015 1.46363C0.586095 1.94535 0.475144 1.92285 0 2.33363C3.18349 2.34163 2.6839 1.80413 9.3311 0.781132C14.4968 1.4111 14.9556 0.220462 9.9621 0.00113213C4.7839 -0.0528677 3.74307 1.84463 0.847015 1.46363Z" sodipodi:nodetypes="ccccc"/><circle id="shape0311" transform="matrix(0.412387447482758 0 0 0.412387447482758 160.509068977261 140.208415167788)" r="10.4754037997001" cx="10.4754037997001" cy="10.4754037997001" fill="#aa33ff" fill-rule="evenodd" stroke-opacity="0" stroke="#000000" stroke-width="0" stroke-linecap="square" stroke-linejoin="bevel"/><ellipse id="shape01211" transform="matrix(-9.1568407852351e-17 0.412387447482758 0.412387447482758 9.1568407852351e-17 163.875222212531 141.492554966125)" rx="7.66177378583781" ry="4.86754633765314" cx="7.66177378583781" cy="4.86754633765314" fill="#000000" fill-rule="evenodd" stroke-opacity="0" stroke="#000000" stroke-width="0" stroke-linecap="square" stroke-linejoin="bevel"/><ellipse id="shape06" transform="matrix(1.91759275812347 0 0 1.91759275812347 137.911757887076 187.320093535202)" rx="8.56942500960187" ry="5.42250304334758" cx="8.56942500960187" cy="5.42250304334758" fill="#1e1e34" fill-rule="evenodd" stroke-opacity="0" stroke="#000000" stroke-width="0" stroke-linecap="square" stroke-linejoin="bevel"/><path id="shape13" transform="matrix(1.9002471054838 0.257338151287492 -0.257338151287492 1.9002471054838 68.2603255311416 176.500808515177)" fill="#1e1e34" fill-rule="evenodd" stroke-opacity="0" stroke="#000000" stroke-width="0" stroke-linecap="square" stroke-linejoin="bevel" d="M3.97312 18.8148C15.3862 20.9685 38.0566 16.4146 41.2506 12.3595C36.6089 10.1513 36.9387 8.99586 36.676 5.49C31.6702 5.41165 -13.4289 -13.2999 3.97312 18.8148Z" sodipodi:nodetypes="cccc"/><path id="shape23" transform="matrix(-1.91759275812347 0 0 1.91759275812347 64.9492644535921 189.017160202297)" fill="#1e1e34" fill-rule="evenodd" stroke-opacity="0" stroke="#000000" stroke-width="0" stroke-linecap="square" stroke-linejoin="bevel" d="M0.250765 0C0.484845 0.714222 0.573481 1.73883 0.516675 3.07383C0.459869 4.40883 0.287644 5.39422 0 6.03C9.54349 11.498 18.1639 11.9655 25.8611 7.4325C28.9568 5.78247 29.5056 2.88183 24.8721 3.0825C16.8739 6.1185 8.66682 5.091 0.250765 0Z" sodipodi:nodetypes="czcccc"/><path id="shape024" transform="matrix(3.98247866737929 -0.236925384972287 0.236925384972287 3.98247866737929 127.386786472127 182.819670697278)" fill="#1e1e34" fill-rule="evenodd" stroke-opacity="0" stroke="#000000" stroke-width="0" stroke-linecap="square" stroke-linejoin="bevel" d="M3.057 3.02075C-0.381115 0.57521 -0.919173 -0.385435 1.44283 0.138818C4.83865 0.767911 6.41397 1.28581 6.16878 1.69253C5.17474 1.86227 4.55513 2.00639 4.30996 2.12487C4.0648 2.24336 3.64714 2.54199 3.057 3.02075Z" sodipodi:nodetypes="ccczc"/><path id="shape014" transform="matrix(1.91759275812347 0 0 1.91759275812347 123.396208627192 202.567715104024)" fill="#1e1e34" fill-rule="evenodd" stroke-opacity="0" stroke="#000000" stroke-width="0" stroke-linecap="square" stroke-linejoin="bevel" d="M4.12076 0C4.71484 0.714222 2.37348 3.40383 2.31667 4.73883C2.25987 6.07383 0.287644 6.44422 0 7.08C10.1735 8.093 14.6539 8.3205 25.7261 7.7475C30.0818 8.03247 31.7556 4.68183 27.1221 3.9375C14.3539 3.3285 11.0518 5.136 4.12076 0Z" sodipodi:nodetypes="czcccc"/><circle id="shape034" transform="matrix(0.446779582056954 0 0 0.446779582056954 148.242738892407 191.889663254258)" r="10.4754037997001" cx="10.4754037997001" cy="10.4754037997001" fill="#aa33ff" fill-rule="evenodd" stroke-opacity="0" stroke="#000000" stroke-width="0" stroke-linecap="square" stroke-linejoin="bevel"/><ellipse id="shape0123" transform="matrix(-9.92049957864067e-17 0.446779582056954 0.446779582056954 9.92049957864067e-17 151.889621320022 193.280897264667)" rx="7.66177378583781" ry="4.86754633765314" cx="7.66177378583781" cy="4.86754633765314" fill="#000000" fill-rule="evenodd" stroke-opacity="0" stroke="#000000" stroke-width="0" stroke-linecap="square" stroke-linejoin="bevel"/><path id="shape0212" transform="matrix(-3.98247866737929 -0.236925384972287 -0.236925384972287 3.98247866737929 165.192943140566 182.714697950881)" fill="#1e1e34" fill-rule="evenodd" stroke-opacity="0" stroke="#000000" stroke-width="0" stroke-linecap="square" stroke-linejoin="bevel" d="M0 1.28736C1.10423 -0.195788 4.83131 -0.118638 4.81768 0.16397C4.80405 0.446578 3.39467 0.598321 2.9121 1.00897C2.90061 1.01206 1.62342 0.959368 1.2843 1.0181C0.945183 1.07683 0.0388626 1.29342 0 1.28736Z" sodipodi:nodetypes="czczc"/><ellipse id="shape32" transform="matrix(1.91759275812347 0 0 1.91759275812347 208.757222004429 194.683661151113)" rx="5.40000000000001" ry="5.39999999999999" cx="5.40000000000001" cy="5.39999999999999" fill="#aa33ff" fill-rule="evenodd" stroke-opacity="0" stroke="#000000" stroke-width="0" stroke-linecap="square" stroke-linejoin="bevel"/><path id="shape042" transform="matrix(-1.91759275812347 0 0 1.91759275812347 212.520947969192 210.001010612388)" fill="#aa33ff" fill-rule="evenodd" stroke-opacity="0" stroke="#000000" stroke-width="0" stroke-linecap="square" stroke-linejoin="bevel" d="M0.847015 1.46363C0.586095 1.94535 0.475144 1.92285 0 2.33363C3.18349 2.34163 2.6839 1.80413 9.3311 0.781132C14.4968 1.4111 14.9556 0.220462 9.9621 0.00113213C4.7839 -0.0528677 3.74307 1.84463 0.847015 1.46363Z" sodipodi:nodetypes="ccccc"/><circle id="shape0312" transform="matrix(0.446779582056954 0 0 0.446779582056954 159.685248004241 191.24103287058)" r="10.4754037997001" cx="10.4754037997001" cy="10.4754037997001" fill="#aa33ff" fill-rule="evenodd" stroke-opacity="0" stroke="#000000" stroke-width="0" stroke-linecap="square" stroke-linejoin="bevel"/><ellipse id="shape01212" transform="matrix(-9.92049957864067e-17 0.446779582056954 0.446779582056954 9.92049957864067e-17 163.332130431856 192.632266880989)" rx="7.66177378583781" ry="4.86754633765314" cx="7.66177378583781" cy="4.86754633765314" fill="#000000" fill-rule="evenodd" stroke-opacity="0" stroke="#000000" stroke-width="0" stroke-linecap="square" stroke-linejoin="bevel"/>
</svg>
