<?xml version="1.0" standalone="no"?>
<!DOCTYPE svg PUBLIC "-//W3C//DTD SVG 20010904//EN" "http://www.w3.org/TR/2001/REC-SVG-20010904/DTD/svg10.dtd">
<!-- Created using Krita: https://krita.org -->
<svg xmlns="http://www.w3.org/2000/svg" 
    xmlns:xlink="http://www.w3.org/1999/xlink"
    xmlns:krita="http://krita.org/namespaces/svg/krita"
    xmlns:sodipodi="http://sodipodi.sourceforge.net/DTD/sodipodi-0.dtd"
    width="240pt"
    height="240pt"
    viewBox="0 0 240 240">
<defs/>
<path id="shape1" transform="matrix(1.8365999433949 0 0 -1.8365999433949 32.2441111997109 166.437254221768)" fill="#1e1e34" fill-rule="evenodd" stroke-opacity="0" stroke="#000000" stroke-width="0" stroke-linecap="square" stroke-linejoin="bevel" d="M91.6871 28.1786C89.4957 4.25046 62.3567 -0.121066 46.5141 0.00251013C30.6715 0.126086 1.10093 8.13033 0.0473257 31.4323C-1.00628 54.7343 15.8227 57.0628 21.5723 74.0132C27.322 90.9637 23.5536 107.315 16.6928 129.354C12.119 144.047 10.8023 158.135 12.7428 171.62L93.5602 171.62C91.0435 158.156 87.8635 143.977 84.0203 129.083C78.2555 106.742 74.9164 94.2513 77.4035 73.6235C79.8905 52.9957 93.8784 52.1068 91.6871 28.1786Z" sodipodi:nodetypes="czzzzcczzz"/><path id="shape02" transform="matrix(2.27116245423319 0 0 -2.27116245423319 34.4384234188849 215.647427443812)" fill="#1e1e34" fill-rule="evenodd" stroke-opacity="0" stroke="#000000" stroke-width="0" stroke-linecap="square" stroke-linejoin="bevel" d="M0.389736 40.9635C-0.652087 13.2908 0.430361 1.17094 3.21116 0.106233C5.99196 -0.958472 14.6235 5.92023 29.5318 23.4423C21.9679 25.3579 16.2305 27.0598 11.9621 29.778C7.69373 32.4963 3.71708 36.0355 0.389736 40.9635Z" sodipodi:nodetypes="czczc"/><circle id="shape3" transform="matrix(1.91967409216838 0 0 -1.91967409216838 59.5988530911345 139.870407446916)" r="11.76" cx="11.76" cy="11.76" fill="#aa33ff" fill-rule="evenodd" stroke-opacity="0" stroke="#000000" stroke-width="0" stroke-linecap="square" stroke-linejoin="bevel"/><ellipse id="shape011" transform="matrix(-4.50095352055317e-16 -1.84944379547641 2.02704925979753 -4.10659016897608e-16 73.9700666547836 132.832996901493)" rx="8.70521403219518" ry="4.05791662907992" cx="8.70521403219518" cy="4.05791662907992" fill="#000000" fill-rule="evenodd" stroke-opacity="0" stroke="#000000" stroke-width="0" stroke-linecap="square" stroke-linejoin="bevel"/><circle id="shape31" transform="matrix(1.91967409216838 0 0 -1.91967409216838 124.677682656272 139.870407446915)" r="11.76" cx="11.76" cy="11.76" fill="#aa33ff" fill-rule="evenodd" stroke-opacity="0" stroke="#000000" stroke-width="0" stroke-linecap="square" stroke-linejoin="bevel"/><ellipse id="shape0111" transform="matrix(-4.50095352055317e-16 -1.84944379547641 2.02704925979753 -4.10659016897608e-16 139.013453195346 132.832996901495)" rx="8.70521403219518" ry="4.07540166275813" cx="8.70521403219518" cy="4.07540166275813" fill="#000000" fill-rule="evenodd" stroke-opacity="0" stroke="#000000" stroke-width="0" stroke-linecap="square" stroke-linejoin="bevel"/><path id="shape021" transform="matrix(-2.27116245423319 0 0 -2.27116245423319 199.032416210285 215.647426804938)" fill="#1e1e34" fill-rule="evenodd" stroke-opacity="0" stroke="#000000" stroke-width="0" stroke-linecap="square" stroke-linejoin="bevel" d="M0.389736 40.9635C-0.652087 13.2908 0.430361 1.17094 3.21116 0.106233C5.99196 -0.958472 14.6235 5.92023 29.5318 23.4423C21.9679 25.3579 16.2305 27.0598 11.9621 29.778C7.69373 32.4963 3.71708 36.0355 0.389736 40.9635Z" sodipodi:nodetypes="czczc"/>
</svg>
