<?xml version="1.0" standalone="no"?>
<!DOCTYPE svg PUBLIC "-//W3C//DTD SVG 20010904//EN" "http://www.w3.org/TR/2001/REC-SVG-20010904/DTD/svg10.dtd">
<!-- Created using Krita: https://krita.org -->
<svg xmlns="http://www.w3.org/2000/svg" 
    xmlns:xlink="http://www.w3.org/1999/xlink"
    xmlns:krita="http://krita.org/namespaces/svg/krita"
    xmlns:sodipodi="http://sodipodi.sourceforge.net/DTD/sodipodi-0.dtd"
    width="240pt"
    height="240pt"
    viewBox="0 0 240 240">
<defs/>
<path id="shape1" transform="matrix(4.33754250799562 0.587405273196993 -0.587405273196993 4.33754250799562 17.0180024098661 73.5568421816751)" fill="#1e1e34" fill-rule="evenodd" stroke-opacity="0" stroke="#000000" stroke-width="0" stroke-linecap="square" stroke-linejoin="bevel" d="M0.263911 14.9255C0.97968 19.618 27.9656 19.7042 29.6921 12.4804C32.2015 11.6595 38.9209 10.5634 40.4156 8.66566C49.2457 7.72139 49.0305 5.50279 48.249 3.75179C47.4675 2.00079 45.872 0.794271 43.5591 0.207325C40.8753 -0.473727 37.5137 0.644994 35.841 1.79616C30.8352 1.71781 -3.32739 -5.73771 0.263911 14.9255Z" sodipodi:nodetypes="ccczccc"/><path id="shape02" transform="matrix(9.09048641994668 -0.540810679608367 0.540810679608367 9.09048641994668 159.213718698205 92.5049209074848)" fill="#1e1e34" fill-rule="evenodd" stroke-opacity="0" stroke="#000000" stroke-width="0" stroke-linecap="square" stroke-linejoin="bevel" d="M0.0417314 2.12961C-0.075492 0.856548 0.0542447 0.155706 0.430942 0.0270853C0.995987 -0.165845 2.69993 0.732794 3.15351 0.801394C2.49082 0.914554 1.45356 1.35729 0.0417314 2.12961Z" sodipodi:nodetypes="czcc"/><path id="shape01" transform="matrix(4.37713604582362 0 0 4.37713604582362 121.484236907834 127.54534428844)" fill="#1e1e34" fill-rule="evenodd" stroke-opacity="0" stroke="#000000" stroke-width="0" stroke-linecap="square" stroke-linejoin="bevel" d="M3.10393 0.244458C1.22641 1.94205 0.191763 3.00277 0 3.42662C9.79219 5.07514 8.84951 4.87896 19.9217 4.30596C24.2774 4.59093 26.6715 1.07082 22.038 0.326489C13.5258 -0.0795115 7.21449 -0.106855 3.10393 0.244458Z" sodipodi:nodetypes="ccccc"/><path id="shape021" transform="matrix(9.09048641994668 -0.540810679608367 0.540810679608367 9.09048641994668 186.843210979079 88.8575560253382)" fill="#1e1e34" fill-rule="evenodd" stroke-opacity="0" stroke="#000000" stroke-width="0" stroke-linecap="square" stroke-linejoin="bevel" d="M0.0931494 1.60748C-0.0728919 0.552859 -0.0169534 0.017158 0.260965 0.000374473C0.538883 -0.0164091 1.22256 0.530977 2.31199 1.64253L0.98012 1.53698Z" sodipodi:nodetypes="czccc"/>
</svg>
