<?xml version="1.0" standalone="no"?>
<!DOCTYPE svg PUBLIC "-//W3C//DTD SVG 20010904//EN" "http://www.w3.org/TR/2001/REC-SVG-20010904/DTD/svg10.dtd">
<!-- Created using Krita: https://krita.org -->
<svg xmlns="http://www.w3.org/2000/svg" 
    xmlns:xlink="http://www.w3.org/1999/xlink"
    xmlns:krita="http://krita.org/namespaces/svg/krita"
    xmlns:sodipodi="http://sodipodi.sourceforge.net/DTD/sodipodi-0.dtd"
    width="240pt"
    height="240pt"
    viewBox="0 0 240 240">
<defs/>
<path id="shape02" transform="matrix(2.81288581233386 0 0 2.81288581233386 8.00800228799752 175.17499866753)" fill="#1e1e34" fill-rule="evenodd" stroke-opacity="0" stroke="#000000" stroke-width="0" stroke-linecap="square" stroke-linejoin="bevel" d="M0.389736 40.9635C-0.652087 13.2908 0.430361 1.17094 3.21116 0.106233C5.99196 -0.958472 14.6235 5.92023 29.5318 23.4423C21.9679 25.3579 16.2305 27.0598 11.9621 29.778C7.69373 32.4963 3.71708 36.0355 0.389736 40.9635Z" sodipodi:nodetypes="czczc"/><path id="shape021" transform="matrix(-2.81288581233386 0 0 2.81288581233386 231.991997712002 175.17499866753)" fill="#1e1e34" fill-rule="evenodd" stroke-opacity="0" stroke="#000000" stroke-width="0" stroke-linecap="square" stroke-linejoin="bevel" d="M0.389736 40.9635C-0.652087 13.2908 0.430361 1.17094 3.21116 0.106233C5.99196 -0.958472 14.6235 5.92023 29.5318 23.4423C21.9679 25.3579 16.2305 27.0598 11.9621 29.778C7.69373 32.4963 3.71708 36.0355 0.389736 40.9635Z" sodipodi:nodetypes="czczc"/>
</svg>
