<?xml version="1.0" standalone="no"?>
<!DOCTYPE svg PUBLIC "-//W3C//DTD SVG 20010904//EN" "http://www.w3.org/TR/2001/REC-SVG-20010904/DTD/svg10.dtd">
<!-- Created using Krita: https://krita.org -->
<svg xmlns="http://www.w3.org/2000/svg" 
    xmlns:xlink="http://www.w3.org/1999/xlink"
    xmlns:krita="http://krita.org/namespaces/svg/krita"
    xmlns:sodipodi="http://sodipodi.sourceforge.net/DTD/sodipodi-0.dtd"
    width="240pt"
    height="240pt"
    viewBox="0 0 240 240">
<defs/>
<ellipse id="shape0" transform="translate(72.0600062560922, 76.6200000067053)" rx="47.9399937439078" ry="27.6599955730758" cx="47.9399937439078" cy="27.6599955730758" fill="#1e1e34" fill-rule="evenodd" stroke-opacity="0" stroke="#000000" stroke-width="0" stroke-linecap="square" stroke-linejoin="bevel"/><ellipse id="shape1" transform="translate(10.6800005283328, 15.8400005471061)" rx="16.32" ry="12" cx="16.32" cy="12" fill="#7ea154" fill-rule="evenodd" stroke-opacity="0" stroke="#000000" stroke-width="0" stroke-linecap="square" stroke-linejoin="bevel"/><ellipse id="shape01" transform="translate(150.959999833723, -0.359999332208787)" rx="15.84" ry="12" cx="15.84" cy="12" fill="#70469f" fill-rule="evenodd" stroke-opacity="0" stroke="#000000" stroke-width="0" stroke-linecap="square" stroke-linejoin="bevel"/><ellipse id="shape02" transform="matrix(2.22044604925031e-16 1 -1 2.22044604925031e-16 33.7200005283328 16.8000005471061)" rx="11.04" ry="6.71999999999996" cx="11.04" cy="6.71999999999996" fill="#000000" fill-rule="evenodd" stroke-opacity="0" stroke="#000000" stroke-width="0" stroke-linecap="square" stroke-linejoin="bevel"/><ellipse id="shape03" transform="matrix(2.22044604925031e-16 1 -1 2.22044604925031e-16 173.999999833723 0.570000669802837)" rx="11.04" ry="6.72000000000001" cx="11.04" cy="6.72000000000001" fill="#000000" fill-rule="evenodd" stroke-opacity="0" stroke="#000000" stroke-width="0" stroke-linecap="square" stroke-linejoin="bevel"/><path id="shape04" transform="matrix(-1 0 0 1 167.493550779991 50.4764532366537)" fill="#1e1e34" fill-rule="evenodd" stroke-opacity="0" stroke="#000000" stroke-width="0" stroke-linecap="square" stroke-linejoin="bevel" d="M0.513549 40.9635C-0.859244 13.2908 0.567079 1.17094 4.23129 0.106233C7.8955 -0.958472 19.2691 5.92023 38.9135 23.4423C28.9467 25.3579 21.6267 27.2998 16.0023 30.018C10.3779 32.7363 4.89793 36.0355 0.513549 40.9635Z" sodipodi:nodetypes="czczc"/><path id="shape2" transform="translate(69.0321323981775, 126.539995382695)" fill="#1e1e34" fill-rule="evenodd" stroke-opacity="0" stroke="#000000" stroke-width="0" stroke-linecap="square" stroke-linejoin="bevel" d="M2.96788 79.9396C-3.4183 68.8467 0.501683 42.2001 14.7279 1.42109e-14C26.0779 5.6533 38.1579 8.47995 50.9679 8.47996C63.7779 8.47997 75.7379 5.65331 86.8479 0C101.314 42.2001 105.354 68.8467 98.9679 79.9396C96.6095 84.0361 94.5908 86.8273 92.9116 88.3133C87.9597 80.7965 80.8015 77.9299 71.437 79.7136C61.2992 81.6445 56.5558 87.009 57.2069 95.807C54.1347 95.8153 52.0551 95.8195 50.9679 95.8195C49.678 95.8195 47.9053 95.7378 45.6498 95.5743C47.2201 86.7583 42.853 81.3274 32.5484 79.2818C22.2438 77.2361 14.3647 80.0411 8.91123 87.6966C7.4776 86.9175 5.49648 84.3318 2.96788 79.9396Z" sodipodi:nodetypes="cczczcsccczcc"/><path id="shape3" transform="translate(172.199999986589, 190.319999827449)" fill="#1e1e34" fill-rule="evenodd" stroke-opacity="0" stroke="#000000" stroke-width="0" stroke-linecap="square" stroke-linejoin="bevel" d="M0 15.75C0.864992 15.195 1.26499 12.855 1.2 8.73C1.13501 4.60501 0.995008 1.69501 0.78 0C7.43962 2.67114 13.4688 3.75326 18.8674 3.24636C26.9654 2.48601 60.807 -3.07112 60.78 23.13C60.7514 50.8349 4.75803 37.6412 7.38 27.42C10.002 17.1988 44.6618 33.6424 46.29 24.36C48.2028 13.4554 28.5165 15.6436 21.2622 17.1442C16.4261 18.1445 9.33865 17.6798 0 15.75Z" sodipodi:nodetypes="czczszszc"/><path id="shape05" transform="translate(71.6832483257782, 50.8582521647195)" fill="#1e1e34" fill-rule="evenodd" stroke-opacity="0" stroke="#000000" stroke-width="0" stroke-linecap="square" stroke-linejoin="bevel" d="M0.513549 40.9635C-0.859244 13.2908 0.567079 1.17094 4.23129 0.106233C7.8955 -0.958472 19.2691 5.92023 38.9135 23.4423C28.9467 25.3579 21.3867 27.0598 15.7623 29.778C10.1379 32.4963 4.89793 36.0355 0.513549 40.9635Z" sodipodi:nodetypes="czczc"/><path id="shape5" transform="translate(87.8602935251098, 24.7272852998971)" fill="#462da1" fill-rule="evenodd" stroke-opacity="0" stroke="#000000" stroke-width="0" stroke-linecap="square" stroke-linejoin="bevel" d="M0.129704 10.7304C-1.23184 14.5083 8.01771 32.3701 33.0097 15.7847C18.6297 -12.4249 0.192726 4.53617 0.129704 10.7304Z" sodipodi:nodetypes="ccc"/><ellipse id="shape06" transform="matrix(2.22044604925031e-16 1 -1 2.22044604925031e-16 106.590001844226 26.0399971881724)" rx="9.69900353812961" ry="6.71999999999996" cx="9.69900353812961" cy="6.71999999999996" fill="#000000" fill-rule="evenodd" stroke-opacity="0" stroke="#000000" stroke-width="0" stroke-linecap="square" stroke-linejoin="bevel"/><path id="shape07" transform="translate(172.148969111376, 29.865843176203)" fill="#462da1" fill-rule="evenodd" stroke-opacity="0" stroke="#000000" stroke-width="0" stroke-linecap="square" stroke-linejoin="bevel" d="M0.00358679 13.2237C-0.39801 22.6081 33.054 23.894 35.0096 16.1996C40.2559 -4.44252 0.795123 -5.2727 0.00358679 13.2237Z" sodipodi:nodetypes="css"/><ellipse id="shape011" transform="matrix(2.22044604925031e-16 1 -1 2.22044604925031e-16 196.748968897937 31.1615689050772)" rx="9.60521297943076" ry="6.42000414357282" cx="9.60521297943076" cy="6.42000414357282" fill="#000000" fill-rule="evenodd" stroke-opacity="0" stroke="#000000" stroke-width="0" stroke-linecap="square" stroke-linejoin="bevel"/><circle id="shape6" transform="translate(86.9399979736431, 88.9200004693747)" r="11.76" cx="11.76" cy="11.76" fill="#462da1" fill-rule="evenodd" stroke-opacity="0" stroke="#000000" stroke-width="0" stroke-linecap="square" stroke-linejoin="bevel"/><path id="shape08" transform="matrix(-1 0 0 1 224.614961101044 58.5400084720076)" fill="#462da1" fill-rule="evenodd" stroke-opacity="0" stroke="#000000" stroke-width="0" stroke-linecap="square" stroke-linejoin="bevel" d="M0.17421 11.6604C-2.6718 20.5641 30.2247 23.338 35.1803 14.6362C44.7031 -2.08577 5.91819 -6.30975 0.17421 11.6604Z" sodipodi:nodetypes="css"/><ellipse id="shape012" transform="matrix(-2.22044604925031e-16 1 1 2.22044604925031e-16 199.484337678333 58.9923560862494)" rx="9.60521297943076" ry="6.42000414357282" cx="9.60521297943076" cy="6.42000414357282" fill="#000000" fill-rule="evenodd" stroke-opacity="0" stroke="#000000" stroke-width="0" stroke-linecap="square" stroke-linejoin="bevel"/><ellipse id="shape013" transform="matrix(-2.22044604925031e-16 1 1 2.22044604925031e-16 92.6879707433917 92.5296366127769)" rx="8.70521403219518" ry="5.82000400141108" cx="8.70521403219518" cy="5.82000400141108" fill="#000000" fill-rule="evenodd" stroke-opacity="0" stroke="#000000" stroke-width="0" stroke-linecap="square" stroke-linejoin="bevel"/><ellipse id="shape09" transform="matrix(0.997089982268484 0.0762336360134663 -0.0762336360134663 0.997089982268484 81.7975873204441 208.459900790999)" rx="15.4418374826814" ry="8.84399709198978" cx="15.4418374826814" cy="8.84399709198978" fill="#1e1e34" fill-rule="evenodd" stroke-opacity="0" stroke="#000000" stroke-width="0" stroke-linecap="square" stroke-linejoin="bevel"/><path id="shape010" transform="matrix(-1 0 0 1 51.1545318259995 59.8198826237102)" fill="#462da1" fill-rule="evenodd" stroke-opacity="0" stroke="#000000" stroke-width="0" stroke-linecap="square" stroke-linejoin="bevel" d="M0.57006 10.9874C-4.54806 19.8999 26.2959 21.9345 33.2361 14.2333C45.622 0.489146 11.4149 -7.89734 0.57006 10.9874Z" sodipodi:nodetypes="css"/><ellipse id="shape014" transform="matrix(-2.22044604925031e-16 1 1 2.22044604925031e-16 26.9780566399882 60.4092806558281)" rx="8.70521403219518" ry="5.82000400141108" cx="8.70521403219518" cy="5.82000400141108" fill="#000000" fill-rule="evenodd" stroke-opacity="0" stroke="#000000" stroke-width="0" stroke-linecap="square" stroke-linejoin="bevel"/><circle id="shape015" transform="translate(128.621996425375, 89.472000584708)" r="11.76" cx="11.76" cy="11.76" fill="#462da1" fill-rule="evenodd" stroke-opacity="0" stroke="#000000" stroke-width="0" stroke-linecap="square" stroke-linejoin="bevel"/><ellipse id="shape016" transform="matrix(-2.22044604925031e-16 1 1 2.22044604925031e-16 134.369969195123 93.0816367281102)" rx="8.70521403219518" ry="5.82000400141108" cx="8.70521403219518" cy="5.82000400141108" fill="#000000" fill-rule="evenodd" stroke-opacity="0" stroke="#000000" stroke-width="0" stroke-linecap="square" stroke-linejoin="bevel"/><ellipse id="shape017" transform="matrix(-0.997089982268485 0.076233636013467 0.076233636013467 0.997089982268485 158.317473410101 208.723033200413)" rx="15.0593553723676" ry="8.84399709198978" cx="15.0593553723676" cy="8.84399709198978" fill="#1e1e34" fill-rule="evenodd" stroke-opacity="0" stroke="#000000" stroke-width="0" stroke-linecap="square" stroke-linejoin="bevel"/>
</svg>
