<?xml version="1.0" standalone="no"?>
<!DOCTYPE svg PUBLIC "-//W3C//DTD SVG 20010904//EN" "http://www.w3.org/TR/2001/REC-SVG-20010904/DTD/svg10.dtd">
<!-- Created using Krita: https://krita.org -->
<svg xmlns="http://www.w3.org/2000/svg" 
    xmlns:xlink="http://www.w3.org/1999/xlink"
    xmlns:krita="http://krita.org/namespaces/svg/krita"
    xmlns:sodipodi="http://sodipodi.sourceforge.net/DTD/sodipodi-0.dtd"
    width="480pt"
    height="240pt"
    viewBox="0 0 480 240">
<defs/>
<path id="shape0" transform="matrix(1.32898268628756 0 0 1.32898268628756 84.7043999133922 188.507404434317)" fill="#3da898" fill-rule="evenodd" stroke-opacity="0" stroke="#000000" stroke-width="0" stroke-linecap="square" stroke-linejoin="bevel" d="M28.6389 0C23.0804 0.208936 13.5341 0.574094 0 1.09547L51.1609 18.9778C68.3937 15.6177 76.0785 12.4061 74.2151 9.34319C72.6904 7.00262 47.4606 6.58577 28.6389 0Z" sodipodi:nodetypes="ccccc"/><path id="shape1" transform="translate(67.0099996489741, 167.672325594501)" fill="#4be3ce" fill-rule="evenodd" stroke-opacity="0" stroke="#000000" stroke-width="0" stroke-linecap="square" stroke-linejoin="bevel" d="M0 0.177674C26.3657 -0.173805 40.0557 -0.00380607 41.07 0.687674C42.2794 1.51213 47.7669 8.42213 57.5325 21.4177L25.26 26.2777Z" sodipodi:nodetypes="czccc"/><path id="shape01" transform="matrix(-0.972721201999642 -0.905543176017853 0.905543176017853 -0.972721201999642 89.9992338022342 204.360883729825)" fill="#3da898" fill-rule="evenodd" stroke-opacity="0" stroke="#000000" stroke-width="0" stroke-linecap="square" stroke-linejoin="bevel" d="M0 0.685459L2.56317 8.51962C15.5 6.60265 30.1207 13.8472 31.6827 7.42423C33.2447 1.00122 11.3018 -1.28465 0 0.685459Z" sodipodi:nodetypes="cczc"/><path id="shape2" transform="matrix(1.32898268628756 0 0 1.32898268628756 90.36044416938 193.298163806539)" fill="#2e8c7f" fill-rule="evenodd" stroke-opacity="0" stroke="#000000" stroke-width="0" stroke-linecap="square" stroke-linejoin="bevel" d="M3.0933 0C2.17534 2.832 1.67096 2.60461 0 7.82809C46.5811 19.2006 50.1952 16.2011 49.3277 12.0351C48.5053 9.38152 51.651 13.5846 3.0933 0Z" sodipodi:nodetypes="cccc"/><path id="shape3" transform="translate(80.2399971972413, 171.119993625625)" fill="#87ad9d" fill-rule="evenodd" stroke-opacity="0" stroke="#000000" stroke-width="0" stroke-linecap="square" stroke-linejoin="bevel" d="M0 2.84217e-14L14.9925 17.655L38.52 14.4L27.18 0.12Z" sodipodi:nodetypes="ccccc"/><path id="shape02" transform="matrix(0.999727709843435 -0.0233346560120885 0.0233346560120885 0.999727709843435 104.27757524659 192.815542478675)" fill="#aed1c2" fill-rule="evenodd" stroke-opacity="0" stroke="#000000" stroke-width="0" stroke-linecap="square" stroke-linejoin="bevel" d="M0 1.8375C1.692 2.3595 3.537 2.9445 7.485 4.1625C10.425 3.6165 11.1975 3.6165 12.4575 3.3825C12.6315 1.5405 12.159 2.533 5.19 0C-0.5265 1.2545 0.426 -0.0305 0 1.8375Z" sodipodi:nodetypes="ccccc"/><path id="shape03" transform="matrix(0.999727709843435 -0.0233346560120885 0.0233346560120885 0.999727709843435 112.016495002942 191.096989520854)" fill="#aed1c2" fill-rule="evenodd" stroke-opacity="0" stroke="#000000" stroke-width="0" stroke-linecap="square" stroke-linejoin="bevel" d="M0 1.8375C1.692 2.3595 3.537 2.9445 7.485 4.1625C10.425 3.6165 11.1975 3.6165 12.4575 3.3825C12.6315 1.5405 12.159 2.533 5.19 0C-0.5265 1.2545 0.426 -0.0305 0 1.8375Z" sodipodi:nodetypes="ccccc"/><path id="shape04" transform="matrix(0.999727709843435 -0.0233346560120885 0.0233346560120885 0.999727709843435 120.07953243487 189.654388424771)" fill="#aed1c2" fill-rule="evenodd" stroke-opacity="0" stroke="#000000" stroke-width="0" stroke-linecap="square" stroke-linejoin="bevel" d="M0 1.8375C1.692 2.3595 3.537 2.9445 7.485 4.1625C10.425 3.6165 11.1975 3.6165 12.4575 3.3825C12.6315 1.5405 12.159 2.533 5.19 0C-0.5265 1.2545 0.426 -0.0305 0 1.8375Z" sodipodi:nodetypes="ccccc"/><path id="shape05" transform="matrix(0.998415116992033 -0.0562783631761417 0.0562783631761417 0.998415116992033 115.708215865256 196.388622368248)" fill="#aed1c2" fill-rule="evenodd" stroke-opacity="0" stroke="#000000" stroke-width="0" stroke-linecap="square" stroke-linejoin="bevel" d="M0 1.8375C1.692 2.3595 3.537 2.9445 7.485 4.1625C10.425 3.6165 11.1975 3.6165 12.4575 3.3825C12.6315 1.5405 12.159 2.533 5.19 0C-0.5265 1.2545 0.426 -0.0305 0 1.8375Z" sodipodi:nodetypes="ccccc"/><path id="shape011" transform="matrix(0.998415116992033 -0.0562783631761417 0.0562783631761417 0.998415116992033 123.386276750219 194.415887132373)" fill="#aed1c2" fill-rule="evenodd" stroke-opacity="0" stroke="#000000" stroke-width="0" stroke-linecap="square" stroke-linejoin="bevel" d="M0 1.8375C1.692 2.3595 3.537 2.9445 7.485 4.1625C10.425 3.6165 11.1975 3.6165 12.4575 3.3825C12.6315 1.5405 12.159 2.533 5.19 0C-0.5265 1.2545 0.426 -0.0305 0 1.8375Z" sodipodi:nodetypes="ccccc"/><path id="shape021" transform="matrix(0.998415116992033 -0.0562783631761417 0.0562783631761417 0.998415116992033 131.120447958004 192.55806025049)" fill="#aed1c2" fill-rule="evenodd" stroke-opacity="0" stroke="#000000" stroke-width="0" stroke-linecap="square" stroke-linejoin="bevel" d="M0 1.8375C1.692 2.3595 3.537 2.9445 7.485 4.1625C10.425 3.6165 11.1975 3.6165 12.4575 3.3825C12.6315 1.5405 12.159 2.533 5.19 0C-0.5265 1.2545 0.426 -0.0305 0 1.8375Z" sodipodi:nodetypes="ccccc"/><path id="shape06" transform="matrix(0.994776438825811 -0.102077601642269 0.102077601642269 0.994776438825811 128.272414267616 199.80952637012)" fill="#aed1c2" fill-rule="evenodd" stroke-opacity="0" stroke="#000000" stroke-width="0" stroke-linecap="square" stroke-linejoin="bevel" d="M0 1.8375C1.692 2.3595 3.537 2.9445 7.485 4.1625C10.425 3.6165 11.1975 3.6165 12.4575 3.3825C12.6315 1.5405 12.159 2.533 5.19 0C-0.5265 1.2545 0.426 -0.0305 0 1.8375Z" sodipodi:nodetypes="ccccc"/><path id="shape012" transform="matrix(0.994776438825811 -0.102077601642269 0.102077601642269 0.994776438825811 135.85176113574 197.486208846247)" fill="#aed1c2" fill-rule="evenodd" stroke-opacity="0" stroke="#000000" stroke-width="0" stroke-linecap="square" stroke-linejoin="bevel" d="M0 1.8375C1.692 2.3595 3.537 2.9445 7.485 4.1625C10.425 3.6165 11.1975 3.6165 12.4575 3.3825C12.6315 1.5405 12.159 2.533 5.19 0C-0.5265 1.2545 0.426 -0.0305 0 1.8375Z" sodipodi:nodetypes="ccccc"/><path id="shape022" transform="matrix(0.994776438825811 -0.102077601642269 0.102077601642269 0.994776438825811 143.086035030891 195.214085470426)" fill="#aed1c2" fill-rule="evenodd" stroke-opacity="0" stroke="#000000" stroke-width="0" stroke-linecap="square" stroke-linejoin="bevel" d="M0 1.8375C1.692 2.3595 3.537 2.9445 7.485 4.1625C10.425 3.6165 11.1975 3.6165 12.4575 3.3825C12.6315 1.5405 12.159 2.533 5.19 0C-0.5265 1.2545 0.426 -0.0305 0 1.8375Z" sodipodi:nodetypes="ccccc"/><path id="shape07" transform="matrix(0.993230200197711 -0.116162685123992 0.116162685123992 0.993230200197711 145.160721149596 203.018794599095)" fill="#aed1c2" fill-rule="evenodd" stroke-opacity="0" stroke="#000000" stroke-width="0" stroke-linecap="square" stroke-linejoin="bevel" d="M0 1.8375C1.692 2.3595 3.537 2.9445 7.485 4.1625C10.425 3.6165 11.1975 3.6165 12.4575 3.3825C12.6315 1.5405 12.159 2.533 5.19 0C-0.5265 1.2545 0.426 -0.0305 0 1.8375Z" sodipodi:nodetypes="ccccc"/><path id="shape013" transform="matrix(0.993230200197711 -0.116162685123992 0.116162685123992 0.993230200197711 153.132514510991 198.861645511799)" fill="#aed1c2" fill-rule="evenodd" stroke-opacity="0" stroke="#000000" stroke-width="0" stroke-linecap="square" stroke-linejoin="bevel" d="M0 3.3343C1.692 3.8563 3.537 4.4413 7.485 5.6593C10.425 5.1133 18.3669 3.66381 19.6269 3.42981C19.8009 1.58781 19.3113 2.533 12.3423 0C6.62579 1.2545 0.426 1.4663 0 3.3343Z" sodipodi:nodetypes="ccccc"/><ellipse id="shape08" transform="matrix(1.23661250366534 0 0 1.23661250366534 254.544320183558 38.82570704396)" rx="47.9399937439078" ry="27.6599955730758" cx="47.9399937439078" cy="27.6599955730758" fill="#1e1e34" fill-rule="evenodd" stroke-opacity="0" stroke="#000000" stroke-width="0" stroke-linecap="square" stroke-linejoin="bevel"/><path id="shape014" transform="matrix(-1.23661250366534 0 0 1.23661250366534 370.998634672584 12.0962702134966)" fill="#1e1e34" fill-rule="evenodd" stroke-opacity="0" stroke="#000000" stroke-width="0" stroke-linecap="square" stroke-linejoin="bevel" d="M0.513549 40.9635C-0.859244 13.2908 0.567079 1.17094 4.23129 0.106233C7.8955 -0.958472 19.2691 5.92023 38.9135 23.4423C28.9467 25.3579 21.6267 27.2998 16.0023 30.018C10.3779 32.7363 4.89793 36.0355 0.513549 40.9635Z" sodipodi:nodetypes="czczc"/><path id="shape11" transform="matrix(1.23661250366534 0 0 1.23661250366534 250.735676185215 94.7973978305882)" fill="#1e1e34" fill-rule="evenodd" stroke-opacity="0" stroke="#000000" stroke-width="0" stroke-linecap="square" stroke-linejoin="bevel" d="M2.72879 84.0152C-3.65739 72.9223 1.37855 42.8794 15.6048 0.679275C26.9548 6.33257 74.0432 5.65331 85.1532 0C99.6193 42.2001 105.115 72.9223 98.7288 84.0152C96.3704 88.1117 92.6739 100.769 51.311 99.8951C9.94823 99.0218 5.25739 88.4074 2.72879 84.0152Z" sodipodi:nodetypes="ccczzc"/><path id="shape21" transform="matrix(1.23661250366534 0 0 1.23661250366534 371.778688990091 179.308548497083)" fill="#1e1e34" fill-rule="evenodd" stroke-opacity="0" stroke="#000000" stroke-width="0" stroke-linecap="square" stroke-linejoin="bevel" d="M0 14.9737C0.864992 14.4187 1.28613 1.69501 1.07112 0C7.73074 2.67114 18.806 3.8503 24.2046 3.3434C32.3026 2.58305 66.1442 -2.97408 66.1172 23.227C66.0886 50.9319 10.0952 37.7382 12.7172 27.517C15.3392 17.2958 49.999 33.7394 51.6272 24.457C53.54 13.5524 33.8537 15.7406 26.5994 17.2412C21.7633 18.2415 9.33865 16.9035 0 14.9737Z" sodipodi:nodetypes="cczszszc"/><path id="shape023" transform="matrix(1.23661250366534 0 0 1.23661250366534 256.958416558885 12.328407543612)" fill="#1e1e34" fill-rule="evenodd" stroke-opacity="0" stroke="#000000" stroke-width="0" stroke-linecap="square" stroke-linejoin="bevel" d="M0.513549 40.9635C-0.859244 13.2908 0.567079 1.17094 4.23129 0.106233C7.8955 -0.958472 19.2691 5.92023 38.9135 23.4423C28.9467 25.3579 21.3867 27.0598 15.7623 29.778C10.1379 32.4963 4.89793 36.0355 0.513549 40.9635Z" sodipodi:nodetypes="czczc"/><circle id="shape31" transform="matrix(1.23661250366534 0 0 1.23661250366534 272.945103995918 54.0360414111863)" r="11.76" cx="11.76" cy="11.76" fill="#aa33ff" fill-rule="evenodd" stroke-opacity="0" stroke="#000000" stroke-width="0" stroke-linecap="square" stroke-linejoin="bevel"/><ellipse id="shape0111" transform="matrix(-2.74583134821723e-16 1.23661250366534 1.23661250366534 2.74583134821723e-16 280.053118993717 58.4997625997998)" rx="8.70521403219518" ry="5.82000400141108" cx="8.70521403219518" cy="5.82000400141108" fill="#000000" fill-rule="evenodd" stroke-opacity="0" stroke="#000000" stroke-width="0" stroke-linecap="square" stroke-linejoin="bevel"/><ellipse id="shape031" transform="matrix(1.23301393935266 0.0942714674941246 -0.0942714674941246 1.23301393935266 266.58593468319 201.140576884094)" rx="15.4418374826814" ry="8.84399709198978" cx="15.4418374826814" cy="8.84399709198978" fill="#1e1e34" fill-rule="evenodd" stroke-opacity="0" stroke="#000000" stroke-width="0" stroke-linecap="square" stroke-linejoin="bevel"/><circle id="shape041" transform="matrix(1.23661250366534 0 0 1.23661250366534 324.489584459088 54.7186516558322)" r="11.76" cx="11.76" cy="11.76" fill="#aa33ff" fill-rule="evenodd" stroke-opacity="0" stroke="#000000" stroke-width="0" stroke-linecap="square" stroke-linejoin="bevel"/><ellipse id="shape0121" transform="matrix(-2.74583134821723e-16 1.23661250366534 1.23661250366534 2.74583134821723e-16 331.597599456887 59.1823728444457)" rx="8.70521403219518" ry="5.82000400141108" cx="8.70521403219518" cy="5.82000400141108" fill="#000000" fill-rule="evenodd" stroke-opacity="0" stroke="#000000" stroke-width="0" stroke-linecap="square" stroke-linejoin="bevel"/><ellipse id="shape051" transform="matrix(-1.23301393935266 0.0942714674941254 0.0942714674941254 1.23301393935266 361.211382600708 201.465969711694)" rx="15.0593553723676" ry="8.84399709198978" cx="15.0593553723676" cy="8.84399709198978" fill="#1e1e34" fill-rule="evenodd" stroke-opacity="0" stroke="#000000" stroke-width="0" stroke-linecap="square" stroke-linejoin="bevel"/>
</svg>
